<svg xmlns="http://www.w3.org/2000/svg" xmlns:xlink="http://www.w3.org/1999/xlink" version="1.1" x="0px" y="0px" viewBox="0 0 64 80" style="enable-background:new 0 0 64 64;" xml:space="preserve"><path d="M52.4,11.4c-0.3-0.2-0.6-0.2-0.9-0.1c-2.5,1.1-5.1,0.3-6.6-1.7c-0.7-0.9-1.1-2.1-1.1-3.2c0-0.3-0.1-0.5-0.3-0.7  s-0.4-0.3-0.7-0.3l-10.2,0c-0.6,0-1,0.4-1,1v35.5c0,0.1,0,0.1,0,0.2c-0.2,1.8-1.6,3.1-3.4,3.1c-1.9,0-3.5-1.6-3.5-3.5  c0-1.8,1.3-3.2,3.1-3.4c0.5-0.1,0.9-0.5,0.9-1l0-11.6c0-0.6-0.4-1-1-1c0,0-0.1,0-0.2,0c-9.2,0.4-16.3,7.8-16.3,17  c0,9.4,7.6,17,17,17c8.8,0,16.2-6.8,16.9-15.5c0.1-0.1,0.1-0.3,0.1-0.4V23.5c2.2,0.5,4.5,0.7,6.9,0.3c0.5-0.1,0.8-0.5,0.8-1V12.2  C52.9,11.9,52.7,11.6,52.4,11.4z M50.9,22c-2.3,0.2-4.4,0-6.5-0.7c-0.3-0.1-0.6,0-0.9,0.1c-0.3,0.2-0.4,0.5-0.4,0.8v20.2  c0,0.1,0,0.2-0.1,0.3c-0.5,7.8-7.1,14-14.9,14c-8.3,0-15-6.7-15-15c0-7.8,5.8-14.2,13.5-14.9l0,9.7c-2.3,0.7-4,2.8-4,5.2  c0,3,2.5,5.5,5.5,5.5c2.7,0,5-2,5.4-4.6c0.1-0.1,0.1-0.3,0.1-0.4V7.4h8.3c0.2,1.3,0.7,2.4,1.4,3.4c1.7,2.3,4.7,3.5,7.6,2.8V22z"/><text x="0" y="79" fill="#000000" font-size="5px" font-weight="bold" font-family="'Helvetica Neue', Helvetica, Arial-Unicode, Arial, Sans-serif">Created by Mas Dhimas</text><text x="0" y="84" fill="#000000" font-size="5px" font-weight="bold" font-family="'Helvetica Neue', Helvetica, Arial-Unicode, Arial, Sans-serif">from the Noun Project</text></svg>