<svg xmlns="http://www.w3.org/2000/svg" viewBox="0 0 100 125" x="0px" y="0px"><g data-name="Instagram"><path d="M66.19,18H33.81A15.825,15.825,0,0,0,18,33.81V66.19A15.825,15.825,0,0,0,33.81,82H66.19A15.831,15.831,0,0,0,82,66.19V33.81A15.831,15.831,0,0,0,66.19,18Zm-.33,20.2a4.065,4.065,0,1,1,4.07-4.06A4.065,4.065,0,0,1,65.86,38.2ZM50,34.76A15.24,15.24,0,1,1,34.76,50,15.262,15.262,0,0,1,50,34.76Z"/><path d="M50,59.17A9.17,9.17,0,1,0,40.83,50,9.18,9.18,0,0,0,50,59.17Z"/></g><text x="0" y="115" fill="#000000" font-size="5px" font-weight="bold" font-family="'Helvetica Neue', Helvetica, Arial-Unicode, Arial, Sans-serif">Created by widphic</text><text x="0" y="120" fill="#000000" font-size="5px" font-weight="bold" font-family="'Helvetica Neue', Helvetica, Arial-Unicode, Arial, Sans-serif">from the Noun Project</text></svg>